<?xml version="1.0" encoding="UTF-8" standalone="no"?>
<!-- Created with Inkscape (http://www.inkscape.org/) -->

<svg
   xmlns:dc="http://purl.org/dc/elements/1.1/"
   xmlns:cc="http://creativecommons.org/ns#"
   xmlns:rdf="http://www.w3.org/1999/02/22-rdf-syntax-ns#"
   xmlns:svg="http://www.w3.org/2000/svg"
   xmlns="http://www.w3.org/2000/svg"
   xmlns:sodipodi="http://sodipodi.sourceforge.net/DTD/sodipodi-0.dtd"
   xmlns:inkscape="http://www.inkscape.org/namespaces/inkscape"
   width="1049.33"
   height="279.49072"
   id="svg2"
   version="1.1"
   inkscape:version="0.48.4 r9939"
   sodipodi:docname="Numerus_Logo.svg"
   inkscape:export-filename="/home/mat/HostSharedFolder/Numerus logo/Numerus_Logo_15dpi.png"
   inkscape:export-xdpi="15"
   inkscape:export-ydpi="15">
  <title
     id="title4352">Numerus logo</title>
  <defs
     id="defs4" />
  <sodipodi:namedview
     id="base"
     pagecolor="#ffffff"
     bordercolor="#666666"
     borderopacity="1.0"
     inkscape:pageopacity="0.0"
     inkscape:pageshadow="2"
     inkscape:zoom="1.15"
     inkscape:cx="536.64436"
     inkscape:cy="164.12293"
     inkscape:document-units="px"
     inkscape:current-layer="layer1-6"
     showgrid="false"
     inkscape:showpageshadow="false"
     inkscape:window-width="1884"
     inkscape:window-height="966"
     inkscape:window-x="0"
     inkscape:window-y="0"
     inkscape:window-maximized="1"
     fit-margin-top="0"
     fit-margin-left="0"
     fit-margin-right="0"
     fit-margin-bottom="0"
     showguides="true"
     inkscape:guide-bbox="true" />
  <metadata
     id="metadata7">
    <rdf:RDF>
      <cc:Work
         rdf:about="">
        <dc:format>image/svg+xml</dc:format>
        <dc:type
           rdf:resource="http://purl.org/dc/dcmitype/StillImage" />
        <dc:title>Numerus logo</dc:title>
        <dc:date>2015-04-13</dc:date>
        <dc:creator>
          <cc:Agent>
            <dc:title>Matjaž &lt;dev@matjaz.it&gt;</dc:title>
          </cc:Agent>
        </dc:creator>
        <dc:subject>
          <rdf:Bag>
            <rdf:li>jNumerus</rdf:li>
            <rdf:li>jNvmervs</rdf:li>
            <rdf:li>logo</rdf:li>
            <rdf:li>roman</rdf:li>
            <rdf:li>numeral</rdf:li>
            <rdf:li>numerals</rdf:li>
            <rdf:li>library</rdf:li>
            <rdf:li>Java</rdf:li>
          </rdf:Bag>
        </dc:subject>
        <dc:description>Logo of jNumerus, a free and open-source library that allows conversion and manipulation of roman numerals in Java.</dc:description>
        <dc:source>https://github.com/TheMatjaz/jNumerus</dc:source>
        <cc:license
           rdf:resource="http://creativecommons.org/licenses/by-sa/4.0/" />
        <dc:rights>
          <cc:Agent>
            <dc:title>CC BY-SA 4.0</dc:title>
          </cc:Agent>
        </dc:rights>
      </cc:Work>
      <cc:License
         rdf:about="http://creativecommons.org/licenses/by-sa/3.0/">
        <cc:permits
           rdf:resource="http://creativecommons.org/ns#Reproduction" />
        <cc:permits
           rdf:resource="http://creativecommons.org/ns#Distribution" />
        <cc:requires
           rdf:resource="http://creativecommons.org/ns#Notice" />
        <cc:requires
           rdf:resource="http://creativecommons.org/ns#Attribution" />
        <cc:permits
           rdf:resource="http://creativecommons.org/ns#DerivativeWorks" />
        <cc:requires
           rdf:resource="http://creativecommons.org/ns#ShareAlike" />
      </cc:License>
    </rdf:RDF>
  </metadata>
  <g
     inkscape:label="Layer 1"
     inkscape:groupmode="layer"
     id="layer1"
     transform="translate(-19.455069,-485.92773)">
    <g
       transform="translate(-38.513958,-11.102973)"
       id="layer1-6"
       inkscape:label="Layer 1">
      <flowRoot
         transform="translate(202.17348,418.2022)"
         style="font-size:150px;font-style:normal;font-variant:normal;font-weight:normal;font-stretch:normal;line-height:132.00000525%;letter-spacing:-4.63999701px;word-spacing:-1.15999997px;fill:#000000;fill-opacity:1;stroke:none;font-family:Trajan Pro;-inkscape-font-specification:Trajan Pro"
         id="flowRoot2987"
         xml:space="preserve"><flowRegion
           id="flowRegion2989"><rect
             style="font-size:150px;font-style:normal;font-variant:normal;font-weight:normal;font-stretch:normal;line-height:132.00000525%;letter-spacing:-4.63999701px;word-spacing:-1.15999997px;font-family:Trajan Pro;-inkscape-font-specification:Trajan Pro"
             y="149.26688"
             x="84.48275"
             height="163.30777"
             width="824.15063"
             id="rect2991" /></flowRegion><flowPara
           style="font-size:150px;font-style:normal;font-variant:normal;font-weight:normal;font-stretch:normal;text-align:center;line-height:132.00000525%;letter-spacing:-4.63999701px;word-spacing:-1.15999997px;text-anchor:middle;font-family:Trajan Pro;-inkscape-font-specification:Trajan Pro"
           id="flowPara2993">NVMERVS</flowPara></flowRoot>      <path
         sodipodi:type="arc"
         style="fill:none"
         id="path3098"
         sodipodi:cx="40"
         sodipodi:cy="192.09448"
         sodipodi:rx="17.5"
         sodipodi:ry="12"
         d="m 57.5,192.09448 a 17.5,12 0 1 1 -35,0 17.5,12 0 1 1 35,0 z"
         transform="translate(37.015831,316.93622)" />
      <g
         id="g3385"
         transform="translate(0,0.86956522)">
        <g
           id="g3403"
           transform="matrix(0.99668084,0.08140825,-0.08140825,0.99668084,54.378385,-16.348437)">
          <path
             style="fill:#000000;stroke:none"
             d="M 186.28814,561.25682 132.29158,584.705 c 0.58653,1.04579 1.18933,2.11393 1.75417,3.24369 0.69348,1.38692 1.29235,2.76336 1.86689,4.1052 l 53.52795,-24.30555 z"
             id="rect4362"
             inkscape:connector-curvature="0"
             sodipodi:nodetypes="ccsccc" />
          <path
             inkscape:connector-curvature="0"
             style="fill:#000000;stroke:none"
             d="m 109.13357,582.04682 13.12765,26.54791 c 2.33251,2.61283 4.37331,3.92684 5.5909,3.32069 l 0.58278,-0.5342 c 1.59581,-2.42768 -0.52073,-10.80313 -4.96291,-19.68806 -4.95186,-9.90434 -11.0247,-16.90377 -13.56007,-15.64158 -1.16204,0.57854 -1.35999,2.81183 -0.77835,5.99524 z"
             id="path3190" />
          <path
             inkscape:connector-curvature="0"
             style="fill:#000000;stroke:none"
             d="m 136.12156,636.62934 12.66569,25.59057 c 2.47921,2.87954 4.6591,4.34991 5.93752,3.71346 l 0.58279,-0.53419 c 1.59581,-2.42768 -0.50799,-10.77461 -4.95016,-19.65953 -4.95186,-9.90435 -11.00892,-16.94505 -13.54429,-15.68287 -1.2303,0.61243 -1.40624,3.08423 -0.69155,6.57256 z"
             id="path3188" />
          <path
             inkscape:connector-curvature="0"
             style="fill:#000000;stroke:none"
             d="m 164.3837,693.75726 10.58237,21.3873 c 3.09677,4.11237 5.94061,6.39176 7.47698,5.62691 l 0.58278,-0.5342 c 1.59581,-2.42767 -0.52073,-10.80313 -4.96291,-19.68805 -4.95187,-9.90435 -11.0247,-16.90378 -13.56007,-15.64159 -1.48651,0.74005 -1.41995,4.15213 -0.11915,8.84963 z"
             id="path4366-8" />
          <path
             style="fill:#000000;stroke:none"
             d="m 149.67156,628.08802 c -1.69949,-1.56888 -3.16402,-2.27451 -4.11478,-1.80119 -1.46856,0.73105 -1.40932,4.09677 -0.15398,8.70669 2.03183,2.68523 4.15429,6.16216 6.1253,10.10444 2.06277,4.12582 3.61905,8.11732 4.5379,11.47864 3.08389,4.08472 5.9084,6.35531 7.4393,5.59319 l 0.57309,-0.53187 c 1.59582,-2.42768 -0.515,-10.81277 -4.95718,-19.69768 -3.09492,-6.19023 -6.61727,-11.23741 -9.44968,-13.85226 z"
             id="path4366-6-7"
             inkscape:connector-curvature="0"
             sodipodi:nodetypes="cccscccscc" />
          <path
             style="fill:#000000;stroke:none"
             d="m 158.7093,624.30609 c -1.69949,-1.56889 -3.16403,-2.27451 -4.11478,-1.80119 -1.46856,0.73105 -1.40932,4.09675 -0.15396,8.70668 2.03181,2.68524 4.15427,6.16216 6.12528,10.10445 2.06277,4.12582 3.61905,8.11733 4.53789,11.47865 3.0839,4.08472 5.90842,6.3553 7.43931,5.59317 l 0.57311,-0.53186 c 1.59581,-2.42768 -0.51502,-10.81277 -4.9572,-19.69769 -3.09491,-6.19022 -6.61727,-11.23741 -9.44968,-13.85225 z"
             id="path4366-6-6"
             inkscape:connector-curvature="0"
             sodipodi:nodetypes="cccscccscc" />
          <path
             style="fill:#000000;stroke:none"
             d="m 177.37562,682.85815 c -1.69949,-1.56887 -3.16404,-2.27451 -4.11479,-1.80118 -1.46856,0.73104 -1.40931,4.09676 -0.15396,8.70669 2.03182,2.68524 4.15427,6.16217 6.12528,10.10445 2.06277,4.1258 3.61905,8.11732 4.5379,11.47863 3.0839,4.08474 5.90841,6.35531 7.43931,5.59319 l 0.5731,-0.53187 c 1.59581,-2.42768 -0.51501,-10.81276 -4.95719,-19.69768 -3.09491,-6.19022 -6.61727,-11.23741 -9.44968,-13.85226 z"
             id="path4366-6-3"
             inkscape:connector-curvature="0"
             sodipodi:nodetypes="cccscccscc" />
          <path
             style="fill:#000000;stroke:none"
             d="m 167.60823,620.66372 c -1.6995,-1.56889 -3.16404,-2.27452 -4.1148,-1.8012 -1.46856,0.73105 -1.40931,4.09676 -0.15397,8.70668 2.03183,2.68524 4.15428,6.16218 6.12529,10.10447 2.06277,4.1258 3.61904,8.11732 4.53791,11.47862 3.08388,4.08473 5.9084,6.35532 7.4393,5.59319 l 0.57309,-0.53187 c 1.59582,-2.42768 -0.51499,-10.81276 -4.95718,-19.69768 -3.09491,-6.19022 -6.61727,-11.23741 -9.44968,-13.85225 z"
             id="path4366-6-8"
             inkscape:connector-curvature="0"
             sodipodi:nodetypes="cccscccscc" />
          <path
             style="fill:#000000;stroke:none"
             d="m 122.89164,574.62476 c -1.69949,-1.56887 -3.16404,-2.2745 -4.1148,-1.80118 -1.46856,0.73105 -1.40931,4.09677 -0.15396,8.70668 2.03182,2.68525 4.15427,6.16217 6.12529,10.10447 2.06276,4.1258 3.61904,8.11731 4.53789,11.47862 3.0839,4.08473 5.90841,6.35532 7.43931,5.59319 l 0.5731,-0.53186 c 1.59581,-2.42768 -0.515,-10.81278 -4.95719,-19.69768 -3.09491,-6.19024 -6.61727,-11.23742 -9.44968,-13.85227 z"
             id="path4366-6-7-8"
             inkscape:connector-curvature="0"
             sodipodi:nodetypes="cccscccscc" />
          <path
             style="fill:#000000;stroke:none"
             d="m 216.36613,614.20265 -39.57353,16.59396 c 0.56716,1.05443 1.14949,2.13172 1.70455,3.26586 0.68142,1.3923 1.28294,2.76756 1.86159,4.10756 l 38.91536,-18.1033 z"
             id="rect4362-6"
             inkscape:connector-curvature="0"
             sodipodi:nodetypes="ccsccc" />
          <path
             style="fill:#000000;stroke:none"
             d="m 231.96828,673.06131 -46.14581,19.93797 c 0.5845,1.04668 1.18517,2.11578 1.74899,3.246 0.69211,1.38752 1.29135,2.76381 1.86634,4.10543 l 45.36793,-21.08683 z"
             id="rect4362-1"
             inkscape:connector-curvature="0"
             sodipodi:nodetypes="ccsccc" />
          <path
             transform="matrix(0.8715376,1.7431858,-2.0160338,1.0036413,337.27566,514.05893)"
             d="m 60.991954,74.476776 c 0,1.257606 -4.605974,2.277097 -10.28773,2.277097 -5.681757,0 -10.287731,-1.019491 -10.287731,-2.277097 0,-1.257606 4.605974,-2.277097 10.287731,-2.277097 5.096942,0 9.425482,0.826064 10.175684,1.941939"
             sodipodi:ry="2.277097"
             sodipodi:rx="10.28773"
             sodipodi:cy="74.476776"
             sodipodi:cx="50.704224"
             id="path4366-8-0-5"
             style="fill:#000000;stroke:none"
             sodipodi:type="arc"
             sodipodi:start="0"
             sodipodi:end="6.1354621"
             sodipodi:open="true" />
          <path
             transform="matrix(0.8715376,1.7431858,-2.0160338,1.0036413,292.8558,401.98108)"
             d="m 60.991954,74.476776 c 0,1.257606 -4.605974,2.277097 -10.28773,2.277097 -5.681757,0 -10.287731,-1.019491 -10.287731,-2.277097 0,-1.257606 4.605974,-2.277097 10.287731,-2.277097 5.096942,0 9.425482,0.826064 10.175684,1.941939"
             sodipodi:ry="2.277097"
             sodipodi:rx="10.28773"
             sodipodi:cy="74.476776"
             sodipodi:cx="50.704224"
             id="path4366-8-06"
             style="fill:#000000;stroke:none"
             sodipodi:type="arc"
             sodipodi:start="0"
             sodipodi:end="6.1354621"
             sodipodi:open="true" />
          <path
             style="fill:#000000;stroke:none"
             d="m 235.12065,657.1855 c -1.69949,-1.56887 -3.16404,-2.2745 -4.11478,-1.80118 -1.46857,0.73105 -1.40932,4.09677 -0.15398,8.70668 2.03184,2.68524 4.15428,6.16217 6.1253,10.10445 2.06277,4.12582 3.61905,8.11733 4.53789,11.47864 3.0839,4.08473 5.90841,6.35532 7.43931,5.5932 l 0.5731,-0.53187 c 1.59581,-2.42768 -0.51501,-10.81278 -4.95719,-19.69768 -3.09492,-6.19024 -6.61726,-11.23743 -9.44968,-13.85226 z"
             id="path4366-6-8-8"
             inkscape:connector-curvature="0"
             sodipodi:nodetypes="cccscccscc" />
          <path
             inkscape:connector-curvature="0"
             style="fill:#000000;stroke:none"
             d="m 90.48105,563.98191 c -8.256147,0.89388 -18.321032,6.92857 -16.824634,12.06586 l 74.329714,166.26096 c 6.81017,11.13499 35.67572,-2.65247 31.46764,-14.07178 l -0.62514,-1.27047 c -6.12939,-0.39668 -22.28957,-1.30027 -30.32185,13.45572 7.56905,-14.52836 21.36083,-17.60267 30.06511,-13.96968 L 100.05544,567.67151 c -1.418733,-3.21933 -5.249743,-4.15783 -9.57439,-3.6896 z m 88.09084,162.47061 0.25674,0.51396 c 0.31162,0.0201 0.71851,0.0389 0.97527,0.0543 -0.39628,-0.20683 -0.8106,-0.39242 -1.23201,-0.5683 z"
             id="path3194" />
          <path
             inkscape:connector-curvature="0"
             style="fill:#000000;stroke:none"
             d="m 191.67598,525.97204 c -8.4164,0.6264 -17.39321,5.5302 -15.4295,11.43164 1.91368,3.17904 3.25683,6.51148 5.0453,9.90985 3.01262,1.52557 7.62662,7.56051 11.55632,15.42042 3.96064,7.92177 6.09027,15.40235 5.3689,18.65945 13.36075,26.55081 25.22087,50.25765 36.45477,74.23669 0.47588,0.31179 0.9655,0.68645 1.49556,1.17577 2.83241,2.61484 6.34188,7.66119 9.43681,13.85141 3.88689,7.7743 6.02875,15.20861 5.42443,18.56141 0.001,0.003 -0.0326,-6.3e-4 -0.0311,0.002 2.20654,4.17123 4.31183,7.91206 6.25808,11.07488 6.23434,10.09161 28.34892,-4.1315 23.53187,-12.89878 l -0.0357,-0.0601 c -5.17794,-0.90748 -19.87629,-0.73929 -23.23117,9.71228 1.61392,-8.94332 17.12032,-12.13986 23.08381,-10.01488 l -76.6208,-156.41209 c -0.32244,-0.61311 -0.7443,-1.14959 -1.21565,-1.6348 -2.43042,-2.50188 -6.68334,-3.34327 -11.09193,-3.01515 z m 88.9283,161.06234 0.14736,0.3026 c 0.37678,0.066 0.7186,0.13652 0.98661,0.21017 -0.31743,-0.2026 -0.71337,-0.3629 -1.13397,-0.51277 z"
             id="path3194-8" />
        </g>
      </g>
    </g>
  </g>
</svg>
